<?xml version="1.0" standalone="no"?><!DOCTYPE svg PUBLIC "-//W3C//DTD SVG 1.1//EN" "http://www.w3.org/Graphics/SVG/1.1/DTD/svg11.dtd"><svg t="1603176348566" class="icon" viewBox="0 0 1024 1024" version="1.1" xmlns="http://www.w3.org/2000/svg" p-id="2313" width="16" height="16" xmlns:xlink="http://www.w3.org/1999/xlink"><defs><style type="text/css"></style></defs><path d="M814 437.68L531.68 199.2a30.48 30.48 0 0 0-39.36 0L210 437.68a30.48 30.48 0 0 0 19.68 53.84h67.92v282.16a58.32 58.32 0 0 0 58.32 58.32H440V638.64A22.64 22.64 0 0 1 462.64 616h98.72A22.64 22.64 0 0 1 584 638.64V832h84.08a58.32 58.32 0 0 0 58.32-58.32V491.52h67.92a30.48 30.48 0 0 0 19.68-53.84z" p-id="2314" fill="#e6e6e6"></path></svg>